<svg xmlns="http://www.w3.org/2000/svg" viewBox="0 0 120 140" fill="none" aria-hidden="true">
  <g fill="#b1281f" stroke="#b1281f">
    <ellipse cx="60" cy="28" rx="28" ry="14" stroke="none"/>
    <path d="M32 28c0-18 12-26 28-26s28 8 28 26" stroke="none"/>
    <ellipse cx="48" cy="18" rx="10" ry="12" stroke="none"/>
    <ellipse cx="72" cy="16" rx="11" ry="13" stroke="none"/>
    <rect x="34" y="26" width="52" height="8" rx="2" stroke="none"/>
    <circle cx="60" cy="48" r="14" stroke="none"/>
    <path d="M42 66c0-2 8-6 18-6s18 4 18 6v28c0 4-8 8-18 8s-18-4-18-8V66z" stroke="none"/>
    <path d="M42 72c-8 6-14 18-12 28" fill="none" stroke-width="5" stroke-linecap="round"/>
    <path d="M78 72c6 4 10 10 12 16" fill="none" stroke-width="5" stroke-linecap="round"/>
    <g transform="translate(88 78) rotate(25)" fill="none">
      <line x1="0" y1="18" x2="0" y2="48" stroke-width="3.5" stroke-linecap="round"/>
      <ellipse cx="0" cy="8" rx="10" ry="12" stroke-width="2.5"/>
      <path d="M-6 2v12M0 0v16M6 2v12" stroke-width="2" stroke-linecap="round"/>
    </g>
    <path d="M50 100v22M70 100v22" fill="none" stroke-width="5" stroke-linecap="round"/>
  </g>
</svg>
